<svg xmlns="http://www.w3.org/2000/svg" width="400" height="400" viewBox="0 0 75 80" class="css-1j8o68f"><defs id="SvgjsDefs1946"></defs><g id="SvgjsG1947" featurekey="symbolFeature-0" transform="matrix(0.3257049160830179,0,0,0.3257049160830179,0,1.4676456237548188)" fill="#000000"><g><path d="M161.385,234.089c0.029-0.005,0.048-0.016,0.083-0.016c0.727,0,0.727,0.951,1.452,0.951c0.725,0,0.725-0.338,1.45-0.338   c0.724,0,0.724,1.732,1.447,1.732c0.725,0,0.725-2.412,1.449-2.412c0.724,0,0.724,0.309,1.447,0.309c0.723,0,0.723,1.15,1.445,1.15   c0.724,0,0.724-1.359,1.447-1.359c0.722,0,0.722,2.367,1.443,2.367c0.722,0,0.722-1.732,1.443-1.732   c0.724,0,0.724,0.576,1.447,0.576c0.723,0,0.723,0.717,1.445,0.717c0.724,0,0.724-2.09,1.447-2.09c0.723,0,0.723,0.67,1.444,0.67   c0.724,0,0.724,1.492,1.446,1.492c0.723,0,0.723-0.506,1.445-0.506c0.722,0,0.722,0.26,1.443,0.26c0.723,0,0.723-0.498,1.445-0.498   c0.723,0,0.723,0.207,1.445,0.207c0.722,0,0.722-0.893,1.443-0.893c0.721,0,0.721-0.477,1.442-0.477s0.722,2.396,1.443,2.396   c0.723,0,0.723-0.412,1.445-0.412c0.722,0,0.722-1.432,1.443-1.432c0.722,0,0.722,1.885,1.442,1.885   c0.721,0,0.721-0.209,1.44-0.209c0.72,0,0.72-0.785,1.44-0.785c0.721,0,0.721-0.726,1.441-0.726c0.722,0,0.722,1.752,1.442,1.752   c0.723,0,0.723-1.801,1.445-1.801c0.721,0,0.721,1.092,1.442,1.092c0.72,0,0.72-0.807,1.44-0.807c0.719,0,0.719-0.266,1.438-0.266   c0.719,0,0.719,1.742,1.438,1.742c0.719,0,0.719-0.52,1.438-0.52c0.722,0,0.722,0.24,1.442,0.24c0.721,0,0.721-1.805,1.442-1.805   c0.722,0,0.722-0.355,1.442-0.355s0.721-0.242,1.442-0.242c0.722,0,0.722,1.619,1.444,1.619c0.722,0,0.722-0.535,1.443-0.535   c0.721,0,0.721,0.348,1.442,0.348c0.722,0,0.722,0.867,1.442,0.867s0.721-0.029,1.441-0.029c0.721,0,0.721-2.105,1.441-2.105   s0.721,0.135,1.442,0.135s0.722,0.404,1.442,0.404c0.723,0,0.723,0.303,1.444,0.303c0.722,0,0.196,0.166,0.701-0.35   c0.515-0.523,1.009-0.174,1.078-0.693c0.099-0.727,1.066-0.779,1.066-1.514c0-0.732-2.633-0.732-2.633-1.465   c0-0.037,0.016-0.065,0.022-0.1h-65.246C163.442,232.01,162.461,233.101,161.385,234.089z"></path><path d="M161.09,234.352c-0.067,0.06-0.135,0.117-0.203,0.176C161.154,234.785,161.057,234.57,161.09,234.352z"></path><ellipse transform="matrix(0.2268 -0.9739 0.9739 0.2268 27.0361 79.0544)" cx="63.307" cy="22.5" rx="22.494" ry="22.495"></ellipse><path d="M55.207,214.826c3.997-14.394,5.479-27.813,5.476-39.661c-0.024-24.674-6.256-42.508-9.185-49.558   c0.012-1.112-0.021-2.332-0.101-3.673c-0.537-4.005-0.673-8.168-0.55-12.372c-5.249-5.269-8.903-10.612-11.425-15.308   c-6.85-12.642-7.641-23.696-7.661-27.861c0-0.356,0.006-0.586,0.01-0.698c0.206-5.387,4.592-9.614,9.988-9.614   c0.126,0,0.254,0.002,0.382,0.006c5.509,0.212,9.823,4.863,9.616,10.37c0.001,0.029-0.018,6.001,3.047,13.594   c0.665-3.331,1.322-6.491,1.888-9.382c2.869-9.951-0.885-21.863-9.42-23.992c-8.537-2.127-20.912,2.508-25.947,17.15   c-6.805,20.174-8.268,33.305-5.682,55.522c1.985,10.216,7.156,14.611,13.01,16.432c2.157,5.381,7.049,19.802,7.029,39.382   c-0.004,11.168-1.566,24.027-6.09,38.068c0.137-0.001,0.273-0.007,0.41-0.007C38.508,213.227,47.167,214.117,55.207,214.826z"></path><path d="M28.58,216.252c-0.279,0.8-0.56,1.6-0.858,2.407c-2.397,6.473,0.908,13.665,7.381,16.061   c1.431,0.53,2.898,0.782,4.34,0.782c5.08,0,9.855-3.12,11.723-8.161c1.198-3.235,2.253-6.428,3.196-9.58   c-7.9-0.702-16.26-1.538-24.359-1.536C29.524,216.226,29.055,216.246,28.58,216.252z"></path><path d="M91.498,130.601l6.945,8.258c0.05,2.33,0.092,5.267,0.092,8.642c0,9.958-0.37,23.606-1.948,35.922   c-1.53,12.301-4.493,23.319-8.883,27.6c-3.398,3.454-9.555,4.688-17.429,4.669c-3.663,0-7.67-0.25-11.887-0.593h-0.001l-0.178,2.18   l-0.066,0.809c4.253,0.347,8.333,0.604,12.133,0.606c8.107-0.018,15.065-1.12,19.551-5.548c5.409-5.522,8.082-16.8,9.735-29.342   c1.607-12.527,1.972-26.269,1.972-36.302c0-1.799-0.012-3.47-0.031-5.002l43.814,52.102c0.232-0.007,0.464-0.018,0.698-0.018   c12.544,0,22.749,10.205,22.749,22.752c0,4.193-1.145,8.121-3.132,11.498h64.593c1.868,0,3.382-1.514,3.382-3.381V213.33   c0-1.867-1.514-3.381-3.382-3.381h-7.608v-2v-10.615c0-1.867-1.768-3.082-3.382-3.381c-0.733-0.136-12.123-2.339-24.345-4.706   v-18.663h1.25c2.209,0,4-1.791,4-4v-4.5c0-2.209-1.791-4-4-4h-26.5c-2.209,0-4,1.791-4,4v4.5c0,2.209,1.791,4,4,4h1.25v14.015   c-4.033-0.781-6.606-1.28-6.606-1.28c-1.867,0-3.382,1.516-3.382,3.383v13.297l-15.972-18.993l7.548-6.348l-20.416-39.166   l-20.877,5.387l-12.747-15.158C96.972,128.302,94.438,130.092,91.498,130.601z"></path><path d="M55.241,85.667c-5.271-9.646-5.492-18.298-5.48-19.282h-0.002c0.167-4.415-3.276-8.128-7.691-8.296   c-4.416-0.167-8.13,3.277-8.296,7.693v-0.002c-0.004,0.098-0.01,0.301-0.01,0.605c0.014,2.685,0.39,13.941,7.423,26.924   c6.976,12.988,21.002,27.324,46.208,35.082c0.789,0.245,1.59,0.362,2.375,0.362c3.411,0,6.571-2.199,7.638-5.627   c1.311-4.218-1.047-8.703-5.265-10.014C70.539,106.319,60.565,95.306,55.241,85.667z"></path><path d="M165.766,217.334c0-10.906-8.843-19.75-19.75-19.75s-19.75,8.844-19.75,19.75c0,10.908,8.843,19.75,19.75,19.75   S165.766,228.242,165.766,217.334z M136.265,217.334c0-5.377,4.376-9.75,9.752-9.75c5.375,0,9.751,4.373,9.751,9.75   c0,5.375-4.376,9.75-9.751,9.75C140.641,227.084,136.265,222.709,136.265,217.334z"></path><path d="M0,219.794l1.531,2.581c6.98-4.143,15.491-5.746,24.534-6.077l-0.063-1.706l-0.049-1.292   C16.638,213.644,7.62,215.283,0,219.794z"></path></g></g><g id="SvgjsG1948" featurekey="nameFeature-0" transform="matrix(1.949836644425269,0,0,1.949836644425269,96,-11.228133283626157)" fill="#000000"></g></svg>